<?xml version="1.0" encoding="UTF-8" standalone="no"?>
<!DOCTYPE svg PUBLIC "-//W3C//DTD SVG 1.1//EN"
 "http://www.w3.org/Graphics/SVG/1.1/DTD/svg11.dtd">
<!-- Generated by graphviz version 2.43.0 (0)
 -->
<!-- Title: %3 Pages: 1 -->
<svg width="2772pt" height="334pt"
 viewBox="0.00 0.00 2772.01 333.51" xmlns="http://www.w3.org/2000/svg" xmlns:xlink="http://www.w3.org/1999/xlink">
<g id="graph0" class="graph" transform="scale(1 1) rotate(0) translate(4 329.51)">
<title>%3</title>
<polygon fill="white" stroke="transparent" points="-4,4 -4,-329.51 2768.01,-329.51 2768.01,4 -4,4"/>
<!-- samples -->
<g id="node1" class="node">
<title>samples</title>
<ellipse fill="lightyellow" stroke="lightyellow" cx="224.79" cy="-234.51" rx="48.99" ry="18"/>
<text text-anchor="middle" x="224.79" y="-230.81" font-family="Times,serif" font-size="14.00">samples</text>
</g>
<!-- estimate_mixed_dirichlet -->
<g id="node13" class="node">
<title>estimate_mixed_dirichlet</title>
<polygon fill="none" stroke="black" points="518.29,-225.51 322.29,-225.51 322.29,-189.51 518.29,-189.51 518.29,-225.51"/>
<polygon fill="none" stroke="black" points="522.29,-229.51 318.29,-229.51 318.29,-185.51 522.29,-185.51 522.29,-229.51"/>
<text text-anchor="middle" x="420.29" y="-203.81" font-family="Times,serif" font-size="14.00">estimate_mixed_dirichlet</text>
</g>
<!-- samples&#45;&gt;estimate_mixed_dirichlet -->
<g id="edge1" class="edge">
<title>samples&#45;&gt;estimate_mixed_dirichlet</title>
<path fill="none" stroke="black" d="M270.67,-228.25C282.06,-226.66 294.8,-224.88 307.92,-223.05"/>
<polygon fill="black" stroke="black" points="308.58,-226.49 318,-221.64 307.62,-219.56 308.58,-226.49"/>
</g>
<!-- uniformize_mixed_samples -->
<g id="node16" class="node">
<title>uniformize_mixed_samples</title>
<polygon fill="none" stroke="black" points="921.68,-256.51 712.68,-256.51 712.68,-220.51 921.68,-220.51 921.68,-256.51"/>
<polygon fill="none" stroke="black" points="925.68,-260.51 708.68,-260.51 708.68,-216.51 925.68,-216.51 925.68,-260.51"/>
<text text-anchor="middle" x="817.18" y="-234.81" font-family="Times,serif" font-size="14.00">uniformize_mixed_samples</text>
</g>
<!-- samples&#45;&gt;uniformize_mixed_samples -->
<g id="edge2" class="edge">
<title>samples&#45;&gt;uniformize_mixed_samples</title>
<path fill="none" stroke="black" d="M273.31,-236.81C287.75,-237.44 303.67,-238.07 318.29,-238.51 475.73,-243.23 515.18,-244.71 672.68,-242.51 681.01,-242.4 689.61,-242.24 698.27,-242.06"/>
<polygon fill="black" stroke="black" points="698.52,-245.56 708.44,-241.84 698.37,-238.56 698.52,-245.56"/>
</g>
<!-- observation -->
<g id="node2" class="node">
<title>observation</title>
<ellipse fill="lightyellow" stroke="lightyellow" cx="65.64" cy="-154.51" rx="65.79" ry="18"/>
<text text-anchor="middle" x="65.64" y="-150.81" font-family="Times,serif" font-size="14.00">observation</text>
</g>
<!-- observation&#45;&gt;samples -->
<!-- get_class_likelihood -->
<g id="node17" class="node">
<title>get_class_likelihood</title>
<polygon fill="none" stroke="black" points="896.18,-86.51 738.18,-86.51 738.18,-50.51 896.18,-50.51 896.18,-86.51"/>
<polygon fill="none" stroke="black" points="900.18,-90.51 734.18,-90.51 734.18,-46.51 900.18,-46.51 900.18,-90.51"/>
<text text-anchor="middle" x="817.18" y="-64.81" font-family="Times,serif" font-size="14.00">get_class_likelihood</text>
</g>
<!-- observation&#45;&gt;get_class_likelihood -->
<g id="edge3" class="edge">
<title>observation&#45;&gt;get_class_likelihood</title>
<path fill="none" stroke="black" d="M126.4,-147.66C256.89,-132.68 568.07,-96.98 723.93,-79.1"/>
<polygon fill="black" stroke="black" points="724.43,-82.56 733.97,-77.94 723.63,-75.61 724.43,-82.56"/>
</g>
<!-- post_samples -->
<g id="node3" class="node">
<title>post_samples</title>
<ellipse fill="lightyellow" stroke="lightyellow" cx="2690.57" cy="-169.51" rx="73.39" ry="18"/>
<text text-anchor="middle" x="2690.57" y="-165.81" font-family="Times,serif" font-size="14.00">post_samples</text>
</g>
<!-- classes -->
<g id="node4" class="node">
<title>classes</title>
<ellipse fill="none" stroke="black" cx="615.48" cy="-307.51" rx="44.39" ry="18"/>
<text text-anchor="middle" x="615.48" y="-303.81" font-family="Times,serif" font-size="14.00">classes</text>
</g>
<!-- classes&#45;&gt;uniformize_mixed_samples -->
<g id="edge20" class="edge">
<title>classes&#45;&gt;uniformize_mixed_samples</title>
<path fill="none" stroke="black" d="M649.91,-295.96C675.16,-287.24 710.8,-274.92 742.6,-263.93"/>
<polygon fill="black" stroke="black" points="744.03,-267.15 752.33,-260.57 741.74,-260.53 744.03,-267.15"/>
</g>
<!-- invert_mixed_uniforms -->
<g id="node22" class="node">
<title>invert_mixed_uniforms</title>
<polygon fill="none" stroke="black" points="2577.12,-187.51 2397.12,-187.51 2397.12,-151.51 2577.12,-151.51 2577.12,-187.51"/>
<polygon fill="none" stroke="black" points="2581.12,-191.51 2393.12,-191.51 2393.12,-147.51 2581.12,-147.51 2581.12,-191.51"/>
<text text-anchor="middle" x="2487.12" y="-165.81" font-family="Times,serif" font-size="14.00">invert_mixed_uniforms</text>
</g>
<!-- classes&#45;&gt;invert_mixed_uniforms -->
<g id="edge21" class="edge">
<title>classes&#45;&gt;invert_mixed_uniforms</title>
<path fill="none" stroke="black" d="M659.84,-307.51C737.02,-307.51 903.32,-307.51 1043.68,-307.51 1043.68,-307.51 1043.68,-307.51 2078.14,-307.51 2215.27,-307.51 2365.32,-236.68 2439.39,-196.51"/>
<polygon fill="black" stroke="black" points="2441.38,-199.41 2448.47,-191.53 2438.02,-193.27 2441.38,-199.41"/>
</g>
<!-- transition_matrix -->
<g id="node5" class="node">
<title>transition_matrix</title>
<ellipse fill="none" stroke="black" cx="1868.64" cy="-93.51" rx="90.98" ry="18"/>
<text text-anchor="middle" x="1868.64" y="-89.81" font-family="Times,serif" font-size="14.00">transition_matrix</text>
</g>
<!-- get_post_class_idxs -->
<g id="node20" class="node">
<title>get_post_class_idxs</title>
<polygon fill="none" stroke="black" points="2154.64,-111.51 1999.64,-111.51 1999.64,-75.51 2154.64,-75.51 2154.64,-111.51"/>
<polygon fill="none" stroke="black" points="2158.64,-115.51 1995.64,-115.51 1995.64,-71.51 2158.64,-71.51 2158.64,-115.51"/>
<text text-anchor="middle" x="2077.14" y="-89.81" font-family="Times,serif" font-size="14.00">get_post_class_idxs</text>
</g>
<!-- transition_matrix&#45;&gt;get_post_class_idxs -->
<g id="edge29" class="edge">
<title>transition_matrix&#45;&gt;get_post_class_idxs</title>
<path fill="none" stroke="black" d="M1959.91,-93.51C1968.32,-93.51 1976.85,-93.51 1985.27,-93.51"/>
<polygon fill="black" stroke="black" points="1985.46,-97.01 1995.46,-93.51 1985.46,-90.01 1985.46,-97.01"/>
</g>
<!-- uniform_samples -->
<g id="node6" class="node">
<title>uniform_samples</title>
<ellipse fill="none" stroke="black" cx="1253.37" cy="-248.51" rx="89.88" ry="18"/>
<text text-anchor="middle" x="1253.37" y="-244.81" font-family="Times,serif" font-size="14.00">uniform_samples</text>
</g>
<!-- uniform_samples&#45;&gt;invert_mixed_uniforms -->
<g id="edge28" class="edge">
<title>uniform_samples&#45;&gt;invert_mixed_uniforms</title>
<path fill="none" stroke="black" d="M1339.89,-243.52C1416.14,-239.5 1530.8,-234.51 1630.65,-234.51 1630.65,-234.51 1630.65,-234.51 2078.14,-234.51 2185.66,-234.51 2307.15,-212.22 2389.39,-193.75"/>
<polygon fill="black" stroke="black" points="2390.24,-197.14 2399.22,-191.52 2388.69,-190.32 2390.24,-197.14"/>
</g>
<!-- pi -->
<g id="node7" class="node">
<title>pi</title>
<ellipse fill="none" stroke="black" cx="1044.68" cy="-120.51" rx="27" ry="18"/>
<text text-anchor="middle" x="1044.68" y="-116.81" font-family="Times,serif" font-size="14.00">pi</text>
</g>
<!-- get_class_posterior -->
<g id="node18" class="node">
<title>get_class_posterior</title>
<polygon fill="none" stroke="black" points="1330.37,-88.51 1176.37,-88.51 1176.37,-52.51 1330.37,-52.51 1330.37,-88.51"/>
<polygon fill="none" stroke="black" points="1334.37,-92.51 1172.37,-92.51 1172.37,-48.51 1334.37,-48.51 1334.37,-92.51"/>
<text text-anchor="middle" x="1253.37" y="-66.81" font-family="Times,serif" font-size="14.00">get_class_posterior</text>
</g>
<!-- pi&#45;&gt;get_class_posterior -->
<g id="edge24" class="edge">
<title>pi&#45;&gt;get_class_posterior</title>
<path fill="none" stroke="black" d="M1070.2,-114.58C1093.07,-109.05 1128.63,-100.45 1162.27,-92.31"/>
<polygon fill="black" stroke="black" points="1163.27,-95.67 1172.17,-89.91 1161.63,-88.86 1163.27,-95.67"/>
</g>
<!-- get_class_transition_matrix -->
<g id="node19" class="node">
<title>get_class_transition_matrix</title>
<polygon fill="none" stroke="black" points="1737.65,-111.51 1525.65,-111.51 1525.65,-75.51 1737.65,-75.51 1737.65,-111.51"/>
<polygon fill="none" stroke="black" points="1741.65,-115.51 1521.65,-115.51 1521.65,-71.51 1741.65,-71.51 1741.65,-115.51"/>
<text text-anchor="middle" x="1631.65" y="-89.81" font-family="Times,serif" font-size="14.00">get_class_transition_matrix</text>
</g>
<!-- pi&#45;&gt;get_class_transition_matrix -->
<g id="edge25" class="edge">
<title>pi&#45;&gt;get_class_transition_matrix</title>
<path fill="none" stroke="black" d="M1071.95,-119.3C1147.86,-115.79 1371.01,-105.5 1511.25,-99.02"/>
<polygon fill="black" stroke="black" points="1511.79,-102.5 1521.62,-98.54 1511.47,-95.51 1511.79,-102.5"/>
</g>
<!-- alphas -->
<g id="node8" class="node">
<title>alphas</title>
<ellipse fill="none" stroke="black" cx="615.48" cy="-215.51" rx="40.89" ry="18"/>
<text text-anchor="middle" x="615.48" y="-211.81" font-family="Times,serif" font-size="14.00">alphas</text>
</g>
<!-- alphas&#45;&gt;uniformize_mixed_samples -->
<g id="edge17" class="edge">
<title>alphas&#45;&gt;uniformize_mixed_samples</title>
<path fill="none" stroke="black" d="M655.46,-220C668.12,-221.46 682.9,-223.16 698.26,-224.93"/>
<polygon fill="black" stroke="black" points="698.1,-228.43 708.43,-226.1 698.9,-221.48 698.1,-228.43"/>
</g>
<!-- alphas&#45;&gt;get_class_likelihood -->
<g id="edge18" class="edge">
<title>alphas&#45;&gt;get_class_likelihood</title>
<path fill="none" stroke="black" d="M645.97,-203.34C654.85,-199.15 664.43,-194.09 672.68,-188.51 690.65,-176.35 692.23,-169.68 708.68,-155.51 731.96,-135.45 758.84,-113.7 779.89,-96.96"/>
<polygon fill="black" stroke="black" points="782.29,-99.53 787.95,-90.58 777.94,-94.05 782.29,-99.53"/>
</g>
<!-- alphas&#45;&gt;invert_mixed_uniforms -->
<g id="edge19" class="edge">
<title>alphas&#45;&gt;invert_mixed_uniforms</title>
<path fill="none" stroke="black" d="M653.77,-208.77C727.81,-196 898.78,-169.51 1043.68,-169.51 1043.68,-169.51 1043.68,-169.51 2078.14,-169.51 2181.83,-169.51 2300.35,-169.51 2382.82,-169.51"/>
<polygon fill="black" stroke="black" points="2382.95,-173.01 2392.95,-169.51 2382.95,-166.01 2382.95,-173.01"/>
</g>
<!-- posterior -->
<g id="node9" class="node">
<title>posterior</title>
<ellipse fill="none" stroke="black" cx="1432.36" cy="-72.51" rx="53.09" ry="18"/>
<text text-anchor="middle" x="1432.36" y="-68.81" font-family="Times,serif" font-size="14.00">posterior</text>
</g>
<!-- posterior&#45;&gt;get_class_transition_matrix -->
<g id="edge27" class="edge">
<title>posterior&#45;&gt;get_class_transition_matrix</title>
<path fill="none" stroke="black" d="M1483.4,-77.84C1492.13,-78.77 1501.53,-79.77 1511.21,-80.8"/>
<polygon fill="black" stroke="black" points="1511.08,-84.3 1521.39,-81.88 1511.82,-77.34 1511.08,-84.3"/>
</g>
<!-- class_idxs -->
<g id="node10" class="node">
<title>class_idxs</title>
<ellipse fill="none" stroke="black" cx="615.48" cy="-161.51" rx="57.39" ry="18"/>
<text text-anchor="middle" x="615.48" y="-157.81" font-family="Times,serif" font-size="14.00">class_idxs</text>
</g>
<!-- class_idxs&#45;&gt;uniformize_mixed_samples -->
<g id="edge22" class="edge">
<title>class_idxs&#45;&gt;uniformize_mixed_samples</title>
<path fill="none" stroke="black" d="M652.65,-175.46C679.55,-185.83 717.04,-200.29 749.34,-212.74"/>
<polygon fill="black" stroke="black" points="748.15,-216.03 758.74,-216.36 750.67,-209.5 748.15,-216.03"/>
</g>
<!-- class_idxs&#45;&gt;get_post_class_idxs -->
<g id="edge23" class="edge">
<title>class_idxs&#45;&gt;get_post_class_idxs</title>
<path fill="none" stroke="black" d="M623.74,-143.62C636.29,-115.32 664.98,-61.05 708.68,-37.51 839.97,33.21 894.55,-18.51 1043.68,-18.51 1043.68,-18.51 1043.68,-18.51 1632.65,-18.51 1756.28,-18.51 1896.6,-47.19 1985.7,-69.08"/>
<polygon fill="black" stroke="black" points="1984.95,-72.5 1995.5,-71.52 1986.63,-65.71 1984.95,-72.5"/>
</g>
<!-- post_class_idxs -->
<g id="node11" class="node">
<title>post_class_idxs</title>
<ellipse fill="none" stroke="black" cx="2275.88" cy="-123.51" rx="81.49" ry="18"/>
<text text-anchor="middle" x="2275.88" y="-119.81" font-family="Times,serif" font-size="14.00">post_class_idxs</text>
</g>
<!-- post_class_idxs&#45;&gt;invert_mixed_uniforms -->
<g id="edge30" class="edge">
<title>post_class_idxs&#45;&gt;invert_mixed_uniforms</title>
<path fill="none" stroke="black" d="M2334.06,-136.08C2349.23,-139.42 2366.09,-143.12 2382.9,-146.82"/>
<polygon fill="black" stroke="black" points="2382.27,-150.26 2392.78,-148.99 2383.77,-143.43 2382.27,-150.26"/>
</g>
<!-- likelihood -->
<g id="node12" class="node">
<title>likelihood</title>
<ellipse fill="none" stroke="black" cx="1044.68" cy="-66.51" rx="55.79" ry="18"/>
<text text-anchor="middle" x="1044.68" y="-62.81" font-family="Times,serif" font-size="14.00">likelihood</text>
</g>
<!-- likelihood&#45;&gt;get_class_posterior -->
<g id="edge26" class="edge">
<title>likelihood&#45;&gt;get_class_posterior</title>
<path fill="none" stroke="black" d="M1100.53,-67.57C1119.44,-67.94 1141.15,-68.36 1162.13,-68.76"/>
<polygon fill="black" stroke="black" points="1162.29,-72.27 1172.36,-68.96 1162.43,-65.27 1162.29,-72.27"/>
</g>
<!-- estimate_mixed_dirichlet&#45;&gt;classes -->
<g id="edge6" class="edge">
<title>estimate_mixed_dirichlet&#45;&gt;classes</title>
<path fill="none" stroke="black" d="M464.16,-229.7C498.46,-247.46 546.01,-272.07 578.39,-288.83"/>
<polygon fill="black" stroke="black" points="577.01,-292.06 587.5,-293.55 580.23,-285.84 577.01,-292.06"/>
</g>
<!-- estimate_mixed_dirichlet&#45;&gt;pi -->
<g id="edge5" class="edge">
<title>estimate_mixed_dirichlet&#45;&gt;pi</title>
<path fill="none" stroke="black" d="M452.47,-185.48C479.16,-168 519.34,-144.84 558.29,-134.51 721.47,-91.24 926.38,-107.1 1007.87,-116.06"/>
<polygon fill="black" stroke="black" points="1007.76,-119.57 1018.09,-117.22 1008.55,-112.61 1007.76,-119.57"/>
</g>
<!-- estimate_mixed_dirichlet&#45;&gt;alphas -->
<g id="edge4" class="edge">
<title>estimate_mixed_dirichlet&#45;&gt;alphas</title>
<path fill="none" stroke="black" d="M522.41,-211.7C536.96,-212.3 551.38,-212.9 564.33,-213.43"/>
<polygon fill="black" stroke="black" points="564.24,-216.93 574.38,-213.85 564.53,-209.94 564.24,-216.93"/>
</g>
<!-- estimate_mixed_dirichlet&#45;&gt;class_idxs -->
<g id="edge7" class="edge">
<title>estimate_mixed_dirichlet&#45;&gt;class_idxs</title>
<path fill="none" stroke="black" d="M513.92,-185.45C529.43,-181.76 545.08,-178.04 559.25,-174.66"/>
<polygon fill="black" stroke="black" points="560.38,-177.99 569.3,-172.27 558.76,-171.18 560.38,-177.99"/>
</g>
<!-- dirichlet.mle -->
<g id="node14" class="node">
<title>dirichlet.mle</title>
<polygon fill="none" stroke="black" points="278.29,-194.51 171.29,-194.51 171.29,-158.51 278.29,-158.51 278.29,-194.51"/>
<polygon fill="none" stroke="black" points="282.29,-198.51 167.29,-198.51 167.29,-154.51 282.29,-154.51 282.29,-198.51"/>
<text text-anchor="middle" x="224.79" y="-172.81" font-family="Times,serif" font-size="14.00">dirichlet.mle</text>
</g>
<!-- dirichlet.mle&#45;&gt;estimate_mixed_dirichlet -->
<g id="edge8" class="edge">
<title>dirichlet.mle&#45;&gt;estimate_mixed_dirichlet</title>
<path fill="none" stroke="black" d="M282.54,-185.6C290.72,-186.91 299.37,-188.3 308.18,-189.71"/>
<polygon fill="black" stroke="black" points="307.75,-193.19 318.18,-191.31 308.86,-186.27 307.75,-193.19"/>
</g>
<!-- uniformize_samples -->
<g id="node15" class="node">
<title>uniformize_samples</title>
<polygon fill="none" stroke="black" points="1123.68,-237.51 965.68,-237.51 965.68,-201.51 1123.68,-201.51 1123.68,-237.51"/>
<polygon fill="none" stroke="black" points="1127.68,-241.51 961.68,-241.51 961.68,-197.51 1127.68,-197.51 1127.68,-241.51"/>
<text text-anchor="middle" x="1044.68" y="-215.81" font-family="Times,serif" font-size="14.00">uniformize_samples</text>
</g>
<!-- uniformize_mixed_samples&#45;&gt;uniform_samples -->
<g id="edge9" class="edge">
<title>uniformize_mixed_samples&#45;&gt;uniform_samples</title>
<path fill="none" stroke="black" d="M925.86,-248.49C937.93,-249.32 950.06,-250.03 961.68,-250.51 1035.39,-253.59 1053.9,-251.1 1127.68,-250.51 1136.08,-250.44 1144.8,-250.35 1153.55,-250.24"/>
<polygon fill="black" stroke="black" points="1153.87,-253.74 1163.82,-250.11 1153.77,-246.74 1153.87,-253.74"/>
</g>
<!-- uniformize_mixed_samples&#45;&gt;uniformize_samples -->
<g id="edge10" class="edge">
<title>uniformize_mixed_samples&#45;&gt;uniformize_samples</title>
<path fill="none" stroke="black" d="M925.97,-229.43C934.51,-228.71 943.08,-227.99 951.49,-227.28"/>
<polygon fill="black" stroke="black" points="951.99,-230.75 961.66,-226.42 951.4,-223.77 951.99,-230.75"/>
</g>
<!-- get_class_likelihood&#45;&gt;likelihood -->
<g id="edge11" class="edge">
<title>get_class_likelihood&#45;&gt;likelihood</title>
<path fill="none" stroke="black" d="M900.23,-67.78C926.01,-67.55 954.11,-67.31 978.56,-67.09"/>
<polygon fill="black" stroke="black" points="978.82,-70.59 988.79,-67 978.76,-63.59 978.82,-70.59"/>
</g>
<!-- get_class_posterior&#45;&gt;posterior -->
<g id="edge12" class="edge">
<title>get_class_posterior&#45;&gt;posterior</title>
<path fill="none" stroke="black" d="M1334.58,-71.42C1346.13,-71.55 1357.88,-71.68 1369.01,-71.81"/>
<polygon fill="black" stroke="black" points="1369.01,-75.31 1379.05,-71.92 1369.09,-68.31 1369.01,-75.31"/>
</g>
<!-- get_class_transition_matrix&#45;&gt;transition_matrix -->
<g id="edge13" class="edge">
<title>get_class_transition_matrix&#45;&gt;transition_matrix</title>
<path fill="none" stroke="black" d="M1741.89,-93.51C1750.33,-93.51 1758.82,-93.51 1767.2,-93.51"/>
<polygon fill="black" stroke="black" points="1767.34,-97.01 1777.34,-93.51 1767.34,-90.01 1767.34,-97.01"/>
</g>
<!-- get_post_class_idxs&#45;&gt;post_class_idxs -->
<g id="edge14" class="edge">
<title>get_post_class_idxs&#45;&gt;post_class_idxs</title>
<path fill="none" stroke="black" d="M2158.73,-105.8C2171.79,-107.79 2185.29,-109.85 2198.25,-111.83"/>
<polygon fill="black" stroke="black" points="2198.1,-115.34 2208.52,-113.39 2199.16,-108.42 2198.1,-115.34"/>
</g>
<!-- invert_uniforms -->
<g id="node21" class="node">
<title>invert_uniforms</title>
<polygon fill="none" stroke="black" points="2340.88,-83.51 2210.88,-83.51 2210.88,-47.51 2340.88,-47.51 2340.88,-83.51"/>
<polygon fill="none" stroke="black" points="2344.88,-87.51 2206.88,-87.51 2206.88,-43.51 2344.88,-43.51 2344.88,-87.51"/>
<text text-anchor="middle" x="2275.88" y="-61.81" font-family="Times,serif" font-size="14.00">invert_uniforms</text>
</g>
<!-- invert_uniforms&#45;&gt;invert_mixed_uniforms -->
<g id="edge15" class="edge">
<title>invert_uniforms&#45;&gt;invert_mixed_uniforms</title>
<path fill="none" stroke="black" d="M2336.88,-87.58C2343.77,-90.44 2350.64,-93.45 2357.12,-96.51 2386.02,-110.18 2417.26,-127.78 2441.75,-142.27"/>
<polygon fill="black" stroke="black" points="2440.07,-145.34 2450.45,-147.45 2443.65,-139.33 2440.07,-145.34"/>
</g>
<!-- invert_mixed_uniforms&#45;&gt;post_samples -->
<g id="edge16" class="edge">
<title>invert_mixed_uniforms&#45;&gt;post_samples</title>
<path fill="none" stroke="black" d="M2581.18,-169.51C2589.75,-169.51 2598.4,-169.51 2606.88,-169.51"/>
<polygon fill="black" stroke="black" points="2607.11,-173.01 2617.11,-169.51 2607.11,-166.01 2607.11,-173.01"/>
</g>
</g>
</svg>
